<mxfile host="app.diagrams.net" modified="2021-10-05T10:32:02.235Z" agent="5.0 (X11)" etag="GRkWhStLgzWU-fc7g4p7" version="14.9.8" type="github">
  <diagram id="gDMXhIrPlpHxcNn4BB3M" name="Page-1">
    <mxGraphModel dx="1422" dy="742" grid="1" gridSize="10" guides="1" tooltips="1" connect="1" arrows="1" fold="1" page="1" pageScale="1" pageWidth="1400" pageHeight="850" math="0" shadow="0">
      <root>
        <mxCell id="0" />
        <mxCell id="1" parent="0" />
        <mxCell id="ZPShamkxypRbvgqsSkSR-1" value="" style="rounded=1;whiteSpace=wrap;html=1;" vertex="1" parent="1">
          <mxGeometry x="40" y="166.5" width="230" height="433.5" as="geometry" />
        </mxCell>
        <mxCell id="ZPShamkxypRbvgqsSkSR-2" value="" style="ellipse;whiteSpace=wrap;html=1;aspect=fixed;" vertex="1" parent="1">
          <mxGeometry x="142.5" y="560" width="25" height="25" as="geometry" />
        </mxCell>
        <mxCell id="ZPShamkxypRbvgqsSkSR-3" value="USER" style="text;html=1;align=center;verticalAlign=middle;resizable=0;points=[];autosize=1;strokeColor=none;" vertex="1" parent="1">
          <mxGeometry x="130" y="380.5" width="50" height="20" as="geometry" />
        </mxCell>
        <mxCell id="ZPShamkxypRbvgqsSkSR-4" value="" style="endArrow=classic;html=1;strokeWidth=2;" edge="1" parent="1">
          <mxGeometry width="50" height="50" relative="1" as="geometry">
            <mxPoint x="360" y="216.5" as="sourcePoint" />
            <mxPoint x="650" y="216.5" as="targetPoint" />
          </mxGeometry>
        </mxCell>
        <mxCell id="ZPShamkxypRbvgqsSkSR-5" value="Conn Request with IP Address" style="text;html=1;strokeColor=none;fillColor=none;align=center;verticalAlign=middle;whiteSpace=wrap;rounded=0;" vertex="1" parent="1">
          <mxGeometry x="434.5" y="220" width="170.5" height="20" as="geometry" />
        </mxCell>
        <mxCell id="ZPShamkxypRbvgqsSkSR-8" value="" style="endArrow=classic;html=1;strokeWidth=2;" edge="1" parent="1">
          <mxGeometry width="50" height="50" relative="1" as="geometry">
            <mxPoint x="650" y="266.5" as="sourcePoint" />
            <mxPoint x="360" y="266.5" as="targetPoint" />
          </mxGeometry>
        </mxCell>
        <mxCell id="ZPShamkxypRbvgqsSkSR-9" value="Unique Id" style="text;html=1;align=center;verticalAlign=middle;resizable=0;points=[];autosize=1;strokeColor=none;" vertex="1" parent="1">
          <mxGeometry x="487.5" y="264.5" width="70" height="20" as="geometry" />
        </mxCell>
        <mxCell id="ZPShamkxypRbvgqsSkSR-11" value="" style="endArrow=classic;html=1;strokeWidth=2;" edge="1" parent="1">
          <mxGeometry width="50" height="50" relative="1" as="geometry">
            <mxPoint x="361" y="316.5" as="sourcePoint" />
            <mxPoint x="651" y="316.5" as="targetPoint" />
          </mxGeometry>
        </mxCell>
        <mxCell id="ZPShamkxypRbvgqsSkSR-12" value="UserName Pass" style="text;html=1;align=center;verticalAlign=middle;resizable=0;points=[];autosize=1;strokeColor=none;" vertex="1" parent="1">
          <mxGeometry x="468.5" y="315.5" width="100" height="20" as="geometry" />
        </mxCell>
        <mxCell id="ZPShamkxypRbvgqsSkSR-13" value="&lt;font style=&quot;font-size: 28px&quot;&gt;LF Server&lt;/font&gt;" style="ellipse;shape=cloud;whiteSpace=wrap;html=1;fillColor=#dae8fc;strokeColor=#6c8ebf;" vertex="1" parent="1">
          <mxGeometry x="620" y="105.5" width="550" height="454.5" as="geometry" />
        </mxCell>
        <mxCell id="ZPShamkxypRbvgqsSkSR-14" value="" style="endArrow=classic;html=1;strokeWidth=2;" edge="1" parent="1">
          <mxGeometry width="50" height="50" relative="1" as="geometry">
            <mxPoint x="650" y="358.5" as="sourcePoint" />
            <mxPoint x="360" y="358.5" as="targetPoint" />
          </mxGeometry>
        </mxCell>
        <mxCell id="ZPShamkxypRbvgqsSkSR-15" value="Succes/ Fail " style="text;html=1;align=center;verticalAlign=middle;resizable=0;points=[];autosize=1;strokeColor=none;" vertex="1" parent="1">
          <mxGeometry x="482.5" y="356.5" width="80" height="20" as="geometry" />
        </mxCell>
        <mxCell id="ZPShamkxypRbvgqsSkSR-17" value="" style="endArrow=classic;html=1;strokeWidth=2;strokeColor=#FF0000;" edge="1" parent="1">
          <mxGeometry width="50" height="50" relative="1" as="geometry">
            <mxPoint x="340" y="416.5" as="sourcePoint" />
            <mxPoint x="650" y="416.5" as="targetPoint" />
          </mxGeometry>
        </mxCell>
        <mxCell id="ZPShamkxypRbvgqsSkSR-18" value="" style="endArrow=classic;html=1;strokeWidth=2;strokeColor=#FF0000;" edge="1" parent="1">
          <mxGeometry width="50" height="50" relative="1" as="geometry">
            <mxPoint x="340" y="416.5" as="sourcePoint" />
            <mxPoint x="360" y="216.5" as="targetPoint" />
            <Array as="points">
              <mxPoint x="340" y="216.5" />
            </Array>
          </mxGeometry>
        </mxCell>
        <mxCell id="ZPShamkxypRbvgqsSkSR-19" value="If Success-------&amp;gt; Start Sending Data" style="text;html=1;align=center;verticalAlign=middle;resizable=0;points=[];autosize=1;strokeColor=none;" vertex="1" parent="1">
          <mxGeometry x="425" y="416.5" width="210" height="20" as="geometry" />
        </mxCell>
        <mxCell id="ZPShamkxypRbvgqsSkSR-20" value="If Fail-------&amp;gt; Restart Connection" style="text;html=1;align=center;verticalAlign=middle;resizable=0;points=[];autosize=1;strokeColor=none;rotation=-90;" vertex="1" parent="1">
          <mxGeometry x="240" y="306.5" width="190" height="20" as="geometry" />
        </mxCell>
        <mxCell id="ZPShamkxypRbvgqsSkSR-21" value="" style="rhombus;whiteSpace=wrap;html=1;fillColor=#f8cecc;strokeColor=#b85450;" vertex="1" parent="1">
          <mxGeometry x="327" y="400.5" width="25" height="30" as="geometry" />
        </mxCell>
        <mxCell id="ZPShamkxypRbvgqsSkSR-25" value="" style="endArrow=classic;html=1;strokeWidth=2;" edge="1" parent="1">
          <mxGeometry width="50" height="50" relative="1" as="geometry">
            <mxPoint x="642" y="458.5" as="sourcePoint" />
            <mxPoint x="352" y="458.5" as="targetPoint" />
          </mxGeometry>
        </mxCell>
        <mxCell id="ZPShamkxypRbvgqsSkSR-26" value="Data Succesfully Recieved " style="text;html=1;align=center;verticalAlign=middle;resizable=0;points=[];autosize=1;strokeColor=none;" vertex="1" parent="1">
          <mxGeometry x="434.5" y="456.5" width="160" height="20" as="geometry" />
        </mxCell>
        <mxCell id="ZPShamkxypRbvgqsSkSR-27" value="" style="endArrow=classic;html=1;strokeWidth=2;" edge="1" parent="1">
          <mxGeometry width="50" height="50" relative="1" as="geometry">
            <mxPoint x="352" y="497.5" as="sourcePoint" />
            <mxPoint x="642" y="497.5" as="targetPoint" />
          </mxGeometry>
        </mxCell>
        <mxCell id="ZPShamkxypRbvgqsSkSR-28" value="Close Conn" style="text;html=1;align=center;verticalAlign=middle;resizable=0;points=[];autosize=1;strokeColor=none;" vertex="1" parent="1">
          <mxGeometry x="477.5" y="496.5" width="80" height="20" as="geometry" />
        </mxCell>
        <mxCell id="ZPShamkxypRbvgqsSkSR-29" value="&lt;div&gt;Data Stored Locally in Local Data Base&lt;/div&gt;&lt;div&gt;Later we can Store the Data globally&lt;br&gt; &lt;/div&gt;" style="text;html=1;align=center;verticalAlign=middle;resizable=0;points=[];autosize=1;strokeColor=none;" vertex="1" parent="1">
          <mxGeometry x="800" y="356.5" width="220" height="30" as="geometry" />
        </mxCell>
      </root>
    </mxGraphModel>
  </diagram>
</mxfile>
